<svg width="244" height="43" viewBox="0 0 244 43" fill="none" xmlns="http://www.w3.org/2000/svg">
<rect width="244" height="43" fill="#141414"/>
<path d="M48 11C48 11 59.2894 11 61.3596 11C63.4298 11 65.5 13.8655 65.5 16.7313C65.5 19.5972 63.4298 23.1789 61.3596 23.1791C59.2894 23.1793 49.9736 23.1791 49.9736 23.1791V35" stroke="white" stroke-width="4"/>
<path d="M89 11C89 11 100.289 11 102.36 11C104.43 11 106.5 13.8655 106.5 16.7313C106.5 19.5972 104.43 23.1789 102.36 23.1791C100.289 23.1793 91 23.1791 91 23.1791V24L102.36 33.5" stroke="white" stroke-width="4"/>
<path d="M47.9702 35V31L51.9702 35H47.9702Z" fill="#141414"/>
<path d="M48 13V9L52 13H48Z" fill="#141414"/>
<path d="M89 13V9L93 13H89Z" fill="#141414"/>
<path d="M89 25V20L94 25H89Z" fill="#141414"/>
<path d="M47 25V20L52 25H47Z" fill="#141414"/>
<path d="M89 25V19L95 25H89Z" fill="#141414"/>
<path d="M111 35C111 35 111 35 111 23M111 23H127M111 23V11H119C127 11 127 11 127 23M127 23C127 35 127 35 127 35" stroke="white" stroke-width="4"/>
<path d="M109 35V31L113 35H109Z" fill="#141414"/>
<path d="M108 25V20L113 25H108Z" fill="#141414"/>
<path d="M108 13V8L113 13H108Z" fill="#141414"/>
<path d="M125 35V31L129 35H125Z" fill="#141414"/>
<path d="M111 35C111 35 111 35 111 23M111 23H127M111 23V11H119C127 11 127 11 127 23M127 23C127 35 127 35 127 35" stroke="white" stroke-width="4"/>
<path d="M109 35V31L113 35H109Z" fill="#141414"/>
<path d="M108 25V20L113 25H108Z" fill="#141414"/>
<path d="M109 13V9L113 13H109Z" fill="#141414"/>
<path d="M125 35V31L129 35H125Z" fill="#141414"/>
<path d="M201 35C201 35 201 35 201 23M201 23H217M201 23V11H209C217 11 217 11 217 23M217 23C217 35 217 35 217 35" stroke="white" stroke-width="4"/>
<path d="M199 35V31L203 35H199Z" fill="#141414"/>
<path d="M198 25V20L203 25H198Z" fill="#141414"/>
<path d="M198 13V8L203 13H198Z" fill="#141414"/>
<path d="M215 35V31L219 35H215Z" fill="#141414"/>
<path d="M201 35C201 35 201 35 201 23M201 23H217M201 23V11H209C217 11 217 11 217 23M217 23C217 35 217 35 217 35" stroke="#FFCB00" stroke-width="4"/>
<path d="M199 35V31L203 35H199Z" fill="#141414"/>
<path d="M199 25V21L203 25H199Z" fill="#141414"/>
<path d="M199 13V9L203 13H199Z" fill="#141414"/>
<path d="M215 35V31L219 35H215Z" fill="#141414"/>
<path d="M70 35C70 35 70 35 70 23M70 23H86M70 23V11H78C86 11 86 11 86 23M86 23C86 35 86 35 86 35" stroke="white" stroke-width="4"/>
<path d="M68 35V31L72 35H68Z" fill="#141414"/>
<path d="M67 25V20L72 25H67Z" fill="#141414"/>
<path d="M67 13V8L72 13H67Z" fill="#141414"/>
<path d="M84 35V31L88 35H84Z" fill="#141414"/>
<path d="M70 35C70 35 70 35 70 23M70 23H86M70 23V11H78C86 11 86 11 86 23M86 23C86 35 86 35 86 35" stroke="white" stroke-width="4"/>
<path d="M68 35V31L72 35H68Z" fill="#141414"/>
<path d="M67 25V20L72 25H67Z" fill="#141414"/>
<path d="M68 13V9L72 13H68Z" fill="#141414"/>
<path d="M84 35V31L88 35H84Z" fill="#141414"/>
<path d="M101.04 35H107.28L101.04 29.8V35Z" fill="white"/>
<path d="M132 11.0005C132 11.0005 133 11.0007 140 11.0005C147 11.0002 148 11.0005 148 22.0005C148 33.0005 147 33.0005 140 33.0005C133 33.0005 132 33.0005 132 33.0005V11.0005Z" stroke="white" stroke-width="4"/>
<path d="M130 13V9L134 13H130Z" fill="#141414"/>
<path d="M130 35V27L138 35H130Z" fill="#141414"/>
<path d="M170 22L161.5 11H153V22V33H161.5L170 22ZM170 22L178.5 33H187V22V11H178.5L170 22Z" stroke="white" stroke-width="4"/>
<path d="M151 35V27L159 35H151Z" fill="#141414"/>
<path d="M189 9V17L181 9H189Z" fill="#141414"/>
<path d="M151 13V9L155 13H151Z" fill="#141414"/>
<path d="M189 31V35L185 31H189Z" fill="#141414"/>
<path d="M220 11H230.133M239 11H230.133M230.133 11V33H220H239" stroke="#FFCB00" stroke-width="4"/>
<path d="M220 13V9L224 13H220Z" fill="#141414"/>
<path d="M239 9V13L235 9H239Z" fill="#141414"/>
<path d="M239 31V35L235 31H239Z" fill="#141414"/>
<path d="M220 35V31L224 35H220Z" fill="#141414"/>
<path d="M16.6464 15.9566L32.0806 5.25977L39.3878 27.9381L16.6464 15.9566Z" fill="white"/>
<path d="M28.4912 38.4373L39.7977 30.0379L24.7322 36.4131L28.4912 38.4373Z" fill="white"/>
<path d="M7 27.9381V13.6591L16.6464 38.4373L7 27.9381Z" fill="white"/>
<path d="M8.23047 11.9794L15.2 4H26.6792L14.38 12.8193L8.23047 11.9794Z" fill="#FFCB00"/>
<path d="M18.6239 37.8573L12.7505 16.9194L35.5393 28.9527L18.6239 37.8573Z" fill="#FFCB00"/>
<path d="M41.0274 27.5178L35.6978 5.67944L41.4374 14.4988L41.0274 27.5178Z" fill="#FFCB00"/>
<rect x="192" y="31" width="4" height="4" fill="white"/>
</svg>
