<svg width="213" height="39" viewBox="0 0 213 39" fill="none" xmlns="http://www.w3.org/2000/svg">
<path d="M9.64639 13.9566L25.0806 3.25977L32.3878 25.9381L9.64639 13.9566Z" fill="#2E3C4D"/>
<path d="M21.4912 36.4373L32.7977 28.0379L17.7322 34.4131L21.4912 36.4373Z" fill="#2E3C4D"/>
<path d="M0 25.9381V11.6591L9.64639 36.4373L0 25.9381Z" fill="#2E3C4D"/>
<path d="M1.23047 9.9794L8.19999 2H19.6792L7.38004 10.8193L1.23047 9.9794Z" fill="#FFCB00"/>
<path d="M11.6239 35.8573L5.75049 14.9194L28.5393 26.9527L11.6239 35.8573Z" fill="#FFCB00"/>
<path d="M34.0274 25.5178L28.6978 3.67944L34.4374 12.4988L34.0274 25.5178Z" fill="#FFCB00"/>
<path d="M56.992 18.928L54.208 21.712H46.336V30H43.168V13.392L45.952 10.672H42.784V7.888H54.208L56.992 10.672V18.928ZM53.824 18.928V10.672H46.336V21.328L48.672 18.928H53.824ZM73.9493 30H70.8133V21.712H63.2933V30H60.1252V10.672L62.9092 7.888H73.9493V30ZM72.7973 10.672H63.2933V21.328L65.6932 18.928H70.8133V12.656L72.7973 10.672ZM92.5107 30H89.3427L89.4067 27.76L83.0707 21.392L85.2147 18.928H89.3427V10.672H81.8547V30H78.6867V13.392L81.4707 10.672H78.3027V7.888H89.7268L92.5107 10.672V18.544L89.7268 21.328H87.1347V21.744L92.5107 27.056V30ZM109.999 30H106.863V21.712H99.3433V30H96.1753V10.672L98.9593 7.888H109.999V30ZM108.847 10.672H99.3433V21.328L101.743 18.928H106.863V12.656L108.847 10.672ZM128.561 27.216L125.777 30H114.737V13.392L117.521 10.672H114.353V7.888H125.777L128.561 10.672V27.216ZM125.393 27.216V10.672H117.905V29.616L120.241 27.216H125.393ZM146.358 27.216L143.574 30H135.286L132.534 27.216V10.672L135.286 7.888H143.574L146.358 10.672V27.216ZM143.19 27.216V10.672H135.702V27.216H143.19ZM164.071 27.216L161.287 30H152.999L150.247 27.216V10.672L152.999 7.888H161.287L164.071 10.672V27.216ZM160.903 27.216V10.672H153.415V27.216H160.903ZM180.791 30H177.623V24.656L173.943 19.344H173.559L170.103 24.656V30H166.967V23.888L171.703 17.168L166.967 10.768V7.888H170.103V10.096L173.815 15.344H174.199L177.623 10.096V7.888H180.791V10.768L176.087 17.168L180.759 23.888L180.791 30Z" fill="black"/>
<path d="M201.649 30H198.513V21.712H190.993V30H187.825V10.672L190.609 7.888H201.649V30ZM200.497 10.672H190.993V21.328L193.393 18.928H198.513V12.656L200.497 10.672ZM209.555 30H206.387V7.888H209.555V30Z" fill="#FFCB00"/>
</svg>
